<svg xmlns="http://www.w3.org/2000/svg" viewBox="0 0 75.54 89.44"><defs><style>.cls-1{fill:#fff;}.cls-2{fill:#e6b56f;}.cls-3{fill:#3e2d4a;}.cls-4{fill:#df9f85;}.cls-5{fill:#c05c5d;}.cls-6{fill:#fffcf6;}.cls-7{fill:#db9055;}</style></defs><title>air_transmission</title><g id="Layer_2" data-name="Layer 2"><g id="OBJECTS"><circle class="cls-1" cx="38.34" cy="52.24" r="37.2"/><path class="cls-2" d="M13,89H58.15s4-33.64-1.93-36.92-33.73-2.6-39.88.21S13,89,13,89Z"/><path class="cls-3" d="M15.09,44.94a.39.39,0,0,1-.26-.1S10.9,41,13.59,34.36a48.81,48.81,0,0,1,2.59-5.42A20.37,20.37,0,0,0,19,20.28a.39.39,0,0,1,.42-.33.38.38,0,0,1,.33.41,21.22,21.22,0,0,1-2.95,8.93,50.17,50.17,0,0,0-2.56,5.35c-2.5,6.19,1,9.62,1.07,9.66a.37.37,0,0,1,0,.53A.35.35,0,0,1,15.09,44.94Z"/><circle class="cls-3" cx="35.01" cy="5.16" r="5.16"/><path class="cls-3" d="M14.74,43s1.29,3.22,7.38,4.76,11.08-.35,15.72,1.71,11.67.31,13.17-1.59,2.81-24.07-.68-28-22.93-8.49-27.5-4.45S12.22,40.26,14.74,43Z"/><path class="cls-3" d="M53,26.75A17,17,0,0,1,35.37,43.1c-9.39-.35-18.09-8.66-17.74-18S25.94,8.87,35.33,9.22,53.34,17.37,53,26.75Z"/><path class="cls-4" d="M43,41s1.1,13.24,0,14.71-8.09.37-9.93,0S30.47,41,31.58,41,42.76,38,43,41Z"/><path class="cls-4" d="M22.12,25.48S22.82,46.11,36.77,47s13.94-28.18,8.89-30.94S19.54,13.81,22.12,25.48Z"/><path class="cls-5" d="M38.7,29.9s2.67,6.35,2,6.77a4.1,4.1,0,0,1-3.23-.12C36.91,36.08,37.61,29.19,38.7,29.9Z"/><path class="cls-3" d="M33.11,14.47s-5,2.42-6,7-.46,16.16-5.76,15.63C21.39,37.07,11.13,14.06,33.11,14.47Z"/><path class="cls-3" d="M35.74,14.57c-.45.33,5.16.31,8.37,4.2s4,13.61,4.47,13.79,2.48-12-1-15.71S38.33,12.72,35.74,14.57Z"/><path class="cls-5" d="M31.77,45.12s5.43,3.09,11.06.21c0,0,.44,3.46,0,4.26S33.47,51,31.71,47C31.71,47,31.26,45,31.77,45.12Z"/><path class="cls-4" d="M47.25,33.39s1.1-5.18,2.93-3.36.12,7.24-1.71,7.74S46.23,36.06,47.25,33.39Z"/><path class="cls-4" d="M25.37,32.57S24.43,27.32,22,29s-.76,7.2,1.5,7.86S26.44,35.32,25.37,32.57Z"/><path class="cls-3" d="M41.62,27s2.32-1.55,4,.15c1.5,1.49-1.68.49-2.77.82S40.3,28.35,41.62,27Z"/><path class="cls-3" d="M35.52,27.36s-2.22-1.69-4-.09c-1.59,1.4,1.64.59,2.71,1S36.76,28.8,35.52,27.36Z"/><path class="cls-6" d="M33.11,37.6h-.17a4.34,4.34,0,1,1,.17,0Zm0-8.54a4,4,0,0,0-.15,8h.15a4,4,0,0,0,.15-8Z"/><path class="cls-6" d="M28.84,33.17l-.09,0L25,31.58a.25.25,0,0,1-.14-.32.25.25,0,0,1,.33-.14l3.78,1.57a.23.23,0,0,1,.13.32A.25.25,0,0,1,28.84,33.17Z"/><path class="cls-3" d="M37.62,16.39s-.56,8,2.52,9,9,.91,9.4-.31S43.66,14,39.18,12.46c-7.85-2.77-15,8.81-14.12,11.89s10.26,1.82,11.7,1.43S37.33,18.6,37.62,16.39Z"/><path class="cls-6" d="M37.62,33.25a.25.25,0,0,1-.25-.23.26.26,0,0,1,.23-.27l2.55-.2a.27.27,0,0,1,.27.24.25.25,0,0,1-.23.26l-2.55.2Z"/><path class="cls-3" d="M31.78,10.28a.38.38,0,0,1-.17,0A4.58,4.58,0,0,1,29,7c-.58-3,2.12-6.16,2.24-6.29a.37.37,0,0,1,.53,0,.39.39,0,0,1,0,.53S29.18,4.29,29.69,6.9A3.92,3.92,0,0,0,32,9.58a.37.37,0,0,1-.18.7Z"/><path class="cls-3" d="M37.73,11.2a.35.35,0,0,1-.28-.13.37.37,0,0,1,0-.53s3-2.59,3-5.25a3.92,3.92,0,0,0-1.79-3,.37.37,0,0,1-.08-.52.38.38,0,0,1,.53-.08,4.61,4.61,0,0,1,2.09,3.59c.08,3-3.11,5.73-3.25,5.85A.41.41,0,0,1,37.73,11.2Z"/><path class="cls-3" d="M49.72,47.07a.38.38,0,0,1-.31-.16.38.38,0,0,1,.1-.52,7.68,7.68,0,0,0,3.13-7.07,52.52,52.52,0,0,0-1.22-5.85c-.89-3.65-1.82-7.42-1.59-11a.38.38,0,0,1,.4-.35.37.37,0,0,1,.35.4c-.22,3.44.69,7.16,1.57,10.75a52.6,52.6,0,0,1,1.23,5.94A8.39,8.39,0,0,1,49.93,47,.39.39,0,0,1,49.72,47.07Z"/><path class="cls-3" d="M53,28.47H52.9a.38.38,0,0,1-.31-.43c.82-5.81-.82-10.42-4.86-13.7a17.44,17.44,0,0,0-6.35-3.21.37.37,0,0,1-.29-.44.38.38,0,0,1,.45-.29c.14,0,13.84,3.23,11.79,17.75A.38.38,0,0,1,53,28.47Z"/><path class="cls-5" d="M39.39,43.18A3.81,3.81,0,0,1,38,42.92a.37.37,0,1,1,.29-.69,2.88,2.88,0,0,0,2.14,0,.38.38,0,1,1,.34.67A3.13,3.13,0,0,1,39.39,43.18Z"/><path class="cls-5" d="M24,35.52l-.11,0a.38.38,0,0,1-.25-.47,4.14,4.14,0,0,0-1.07-4.14.38.38,0,1,1,.5-.56,4.86,4.86,0,0,1,1.29,4.92A.38.38,0,0,1,24,35.52Z"/><path class="cls-5" d="M48.48,35.59h0a.37.37,0,0,1-.35-.4,5.29,5.29,0,0,1,1.73-3.66.38.38,0,0,1,.53.06.39.39,0,0,1-.06.53,4.55,4.55,0,0,0-1.45,3.12A.38.38,0,0,1,48.48,35.59Z"/><path class="cls-4" d="M23.46,53.38s12.92,11.46,20.11,8.47,9.33-10,5.71-11.07S17.81,48.89,23.46,53.38Z"/><path class="cls-5" d="M40.14,41.84a.31.31,0,0,1-.13,0c-1.17-.42-1.75-.94-1.78-1.58,0-1.06,1.58-1.79,1.76-1.87a.37.37,0,0,1,.3.68c-.53.24-1.32.77-1.31,1.16s.49.62,1.29.91a.38.38,0,0,1-.13.73Z"/><path class="cls-3" d="M34.2,34.11a.54.54,0,0,1-.33-.12C32.2,32.51,31,32.89,31,32.91a.5.5,0,0,1-.64-.3.48.48,0,0,1,.28-.63c.07,0,1.74-.65,3.9,1.26a.49.49,0,0,1-.33.87Z"/><path class="cls-3" d="M43,34.21a.52.52,0,0,1-.38-.17.51.51,0,0,1,.05-.71c2.16-1.91,3.83-1.29,3.9-1.26a.5.5,0,1,1-.35.93c-.06,0-1.23-.39-2.89,1.08A.48.48,0,0,1,43,34.21Z"/><polygon class="cls-3" points="74.31 42.09 64.83 39.35 62.05 42.94 55.35 42.23 63.25 46.1 66 41.59 74.31 42.09"/><polygon class="cls-3" points="66.07 35.19 60.08 35.28 59.11 37.85 55.09 38.63 60.37 39.48 61.16 36.37 66.07 35.19"/><path class="cls-6" d="M44.41,37h-.17a4.6,4.6,0,1,1,.17,0Zm0-8.54a4,4,0,0,0-.14,8h.15a4,4,0,0,0,.15-8Z"/><path class="cls-4" d="M29.85,71A138.84,138.84,0,0,0,44.09,49.84c2.6-4.78,7.47-5.94,7.65-5.27S48.91,48,48.91,48s4-3,4.66-2-2.63,3.89-2.63,3.89,2.92-1.69,4.16-1-3.45,1.6-3.36,4.07C53.1,90.87,35.25,87.92,35.25,87.92Z"/><path class="cls-5" d="M37.45,62.41a.32.32,0,0,1-.14,0,.38.38,0,0,1-.21-.49c4.37-10.69,7.06-12.25,7.17-12.31a.37.37,0,1,1,.36.65c-.05,0-2.64,1.68-6.83,12A.38.38,0,0,1,37.45,62.41Z"/><path class="cls-2" d="M25.86,77.73.09,79.79S-.78,67.45,2.94,61.08,17,51.83,18.75,51.47,25.86,77.73,25.86,77.73Z"/><path class="cls-2" d="M55.35,51.63s6.6.66,8.39,9.45C64.89,66.7,64.83,89,64.83,89H53.16Z"/><path class="cls-2" d="M28.84,69.4s11,18,7.19,18.54-23.33,2-28.58,0S-.48,83.47.19,78c1.22-10,3.56-18.3,5-15.92C12.25,74.11,28.84,69.4,28.84,69.4Z"/><path class="cls-7" d="M27.74,69.9c-7.28,0-13.87-7.22-14.15-7.53a.5.5,0,1,1,.74-.67c.07.07,6.58,7.2,13.41,7.2a.5.5,0,0,1,.5.5A.5.5,0,0,1,27.74,69.9Z"/><path class="cls-7" d="M57,87.75h0a.5.5,0,0,1-.49-.52c0-.12.3-12.83,0-18.53-.28-5.35-1.67-6.55-1.68-6.57a.5.5,0,0,1,.6-.79c.18.13,1.77,1.46,2.08,7.31s0,18.48,0,18.61A.51.51,0,0,1,57,87.75Z"/></g></g></svg>