<svg xmlns="http://www.w3.org/2000/svg" viewBox="0 0 90.84 92.85"><defs><style>.cls-1{fill:#fff;}.cls-2{fill:#e6b56f;}.cls-3{fill:#3e2d4a;}.cls-4{fill:#df9f85;}.cls-5{fill:#c05c5d;}.cls-6{fill:#fffcf6;}</style></defs><title>avoid_animals</title><g id="Layer_2" data-name="Layer 2"><g id="OBJECTS"><circle class="cls-1" cx="41.61" cy="44.77" r="41.61"/><path class="cls-2" d="M58.27,47.3s18.33,6,19.89,21.19c2.71,26.44-10.29,15.58-14.34,14.32S45.73,49.25,58.27,47.3Z"/><path class="cls-2" d="M10.58,86.72H68.14s2-33.09-5.32-37.93S21.2,45,13.6,49.1,10.58,86.72,10.58,86.72Z"/><path class="cls-3" d="M19.39,44.15a.41.41,0,0,1-.19,0C19,44,14.91,41.47,16,35a46.93,46.93,0,0,1,1.22-5.35A18.43,18.43,0,0,0,18,21.37a.38.38,0,0,1,.33-.42.39.39,0,0,1,.41.33,19.3,19.3,0,0,1-.84,8.55,46.57,46.57,0,0,0-1.2,5.27c-1,6,2.83,8.33,2.87,8.35a.39.39,0,0,1,.13.52A.4.4,0,0,1,19.39,44.15Z"/><circle class="cls-3" cx="29.39" cy="4.71" r="4.71"/><path class="cls-3" d="M18.75,42.4s1.79,2.61,7.52,2.76,9.79-2.53,14.33-1.62S51.05,41.48,52,39.48s-2.32-22-6.22-24.83-22.11-3-25.37,1.55S16,40.51,18.75,42.4Z"/><circle class="cls-3" cx="33.14" cy="23.48" r="15.51"/><path class="cls-4" d="M41.46,35.93s2.8,11.79,2,13.27-7.25,1.43-9,1.35-4.32-12.92-3.33-13.07S40.86,33.29,41.46,35.93Z"/><path class="cls-4" d="M20.54,24.79S24,43.31,36.68,42.22s8.74-27.33,3.81-29.13S16.62,14.62,20.54,24.79Z"/><path class="cls-5" d="M34.06,26.83s3.27,5.36,2.71,5.84a3.73,3.73,0,0,1-2.94.33C33.28,32.65,33,26.34,34.06,26.83Z"/><path class="cls-3" d="M29,13.37s-4.19,2.86-4.43,7.09,1.79,14.65-3.06,14.89C21.46,35.35,9.06,16,29,13.37Z"/><path class="cls-3" d="M31.34,13.1c-.37.36,4.69-.42,8.12,2.65s5.43,11.74,5.91,11.83.59-11.2-3.08-14S33.42,11.08,31.34,13.1Z"/><path class="cls-5" d="M31.91,41.2a11.35,11.35,0,0,0,10-1.32s.87,3.06.58,3.84-8.26,2.51-10.38-.8C32.12,42.92,31.43,41.12,31.91,41.2Z"/><path class="cls-4" d="M44.39,28.49s.5-4.84,2.86-3.5,1.18,6.5-.83,7.26S43.61,31.07,44.39,28.49Z"/><path class="cls-4" d="M24.43,30.75S22.86,26.14,20.87,28s.29,6.6,2.42,6.89S25.77,33.08,24.43,30.75Z"/><path class="cls-3" d="M38.33,23.5s1.88-1.71,3.65-.41c1.56,1.14-1.44.67-2.38,1.11S37.32,24.91,38.33,23.5Z"/><path class="cls-3" d="M29.67,25.15s-2.23-1.22-3.64.46c-1.24,1.49,1.56.31,2.58.52S31,26.28,29.67,25.15Z"/><path class="cls-6" d="M29.44,34.61a4.22,4.22,0,1,1,.47,0A3.71,3.71,0,0,1,29.44,34.61Zm0-7.8-.41,0a3.58,3.58,0,1,0,.41,0Z"/><path class="cls-6" d="M39.58,32.49a4.15,4.15,0,1,1,4.12-4.61,4.06,4.06,0,0,1-.87,3,4.14,4.14,0,0,1-2.78,1.54A3.71,3.71,0,0,1,39.58,32.49Zm0-7.79a2.82,2.82,0,0,0-.41,0,3.61,3.61,0,0,0-2.44,1.35,3.65,3.65,0,1,0,2.85-1.37Z"/><path class="cls-6" d="M25.57,30.31h-.05l-1.59-.36a.25.25,0,0,1-.19-.3.24.24,0,0,1,.3-.19l1.59.36a.25.25,0,0,1-.06.5Z"/><path class="cls-6" d="M43.13,27a.25.25,0,0,1-.22-.15.25.25,0,0,1,.12-.33l2-.91a.25.25,0,0,1,.33.12.24.24,0,0,1-.12.33l-2,.91A.23.23,0,0,1,43.13,27Z"/><path class="cls-3" d="M30.32,12.16s2.1,10,5,10.5,9.72-.78,9.88-1.94-6.81-9.18-11.07-10c-7.46-1.42-11.84,11-10.61,13.68s7-.69,8.19-1.25S30.37,14.2,30.32,12.16Z"/><path class="cls-6" d="M33.29,30.06a.26.26,0,0,1-.25-.2.25.25,0,0,1,.19-.3L35.74,29a.25.25,0,0,1,.3.19.26.26,0,0,1-.19.3l-2.51.58Z"/><path class="cls-3" d="M27.13,9.81l-.12,0a4.21,4.21,0,0,1-2.85-2.55c-.93-2.61,1.08-5.87,1.16-6a.38.38,0,1,1,.64.4S24.05,4.72,24.87,7a3.49,3.49,0,0,0,2.38,2.09.37.37,0,0,1,.24.47A.38.38,0,0,1,27.13,9.81Z"/><path class="cls-3" d="M32.62,9.83a.42.42,0,0,1-.25-.1.38.38,0,0,1,0-.53s2.39-2.74,2-5.11a3.5,3.5,0,0,0-2-2.45.38.38,0,0,1-.15-.51A.39.39,0,0,1,32.65,1,4.22,4.22,0,0,1,35,4c.49,2.73-2,5.62-2.14,5.74A.37.37,0,0,1,32.62,9.83Z"/><path class="cls-3" d="M50.64,39.11a.4.4,0,0,1-.26-.1.37.37,0,0,1,0-.53,7,7,0,0,0,1.35-6.89,45.91,45.91,0,0,0-2.25-4.95c-1.53-3.07-3.11-6.25-3.61-9.47a.38.38,0,0,1,.31-.43.37.37,0,0,1,.43.32c.48,3.1,2,6.22,3.55,9.24a49.7,49.7,0,0,1,2.28,5A7.72,7.72,0,0,1,50.91,39,.36.36,0,0,1,50.64,39.11Z"/><path class="cls-3" d="M49.32,22a.37.37,0,0,1-.37-.36c-.12-4.16-1.4-7.37-3.82-9.57-3.88-3.53-9.44-3.2-9.49-3.19a.36.36,0,0,1-.4-.35.37.37,0,0,1,.35-.4c.24,0,5.93-.36,10,3.39,2.57,2.33,3.93,5.73,4.06,10.09a.39.39,0,0,1-.37.39Z"/><path class="cls-5" d="M35.93,38.8a3.08,3.08,0,0,1-.78-.09.37.37,0,0,1-.27-.45.38.38,0,0,1,.46-.27,2.65,2.65,0,0,0,1.9-.32.38.38,0,0,1,.43.62A3,3,0,0,1,35.93,38.8Z"/><path class="cls-5" d="M23.5,33.64h-.05a.37.37,0,0,1-.32-.42,3.75,3.75,0,0,0-1.52-3.56.37.37,0,0,1-.1-.52A.38.38,0,0,1,22,29a4.47,4.47,0,0,1,1.84,4.3A.38.38,0,0,1,23.5,33.64Z"/><path class="cls-5" d="M45.65,31.4a.37.37,0,0,1-.37-.35,7.46,7.46,0,0,1,1-4.56.37.37,0,0,1,.61.43A6.92,6.92,0,0,0,46,31a.38.38,0,0,1-.36.4Z"/><path class="cls-4" d="M25,49.87s8.52,10.18,15.08,7.46S52.8,47.22,49.5,46.24,19.84,45.77,25,49.87Z"/><circle class="cls-3" cx="30.29" cy="30.63" r="1.14"/><circle class="cls-3" cx="40.94" cy="28.58" r="1.14"/><path class="cls-5" d="M33.27,37.43a.39.39,0,0,1-.18,0,.39.39,0,0,1-.16-.51c.06-.1,1.35-2.57,3.43-2.8,1.19-.13,2.34.47,3.45,1.79a.38.38,0,1,1-.58.48,3.34,3.34,0,0,0-2.78-1.53c-1.69.19-2.84,2.39-2.85,2.41A.38.38,0,0,1,33.27,37.43Z"/><path class="cls-1" d="M58.8,64.69S65.47,63.06,72.12,72,75,65,68,61.17,58.8,64.69,58.8,64.69Z"/><path class="cls-1" d="M63,54.42S49.33,49.9,41.52,64.58c-5.16,9.69-2.72,22.14-2.72,22.14H63.69s-4.55-18.34,4.7-28.93C68.39,57.79,68.81,52.78,63,54.42Z"/><path class="cls-4" d="M68.71,70.42s-8-4.43-11.46-3.64,2.7,2,3.86,2.69-4.64-.65-5.5-.17,5,2.64,5,2.64-5.48-.42-6,.46,4.69,2.12,4.69,2.12S55,75.08,54.87,76s7.65,1,9.47,4.51S71.45,72.12,68.71,70.42Z"/><path class="cls-1" d="M45.2,66.14s9.81-2.8,16.45,7.72,4.16-7.54-3.51-12.41S45.2,66.14,45.2,66.14Z"/><path class="cls-4" d="M35.85,66.18S45.58,62,49.19,63s-3.39,1.88-4.82,2.57,5.22-.45,6.05.08-6,2.47-6,2.47,6.09-.17,6.51.75-5.61,2-5.61,2,4.59.77,4.46,1.74-8.59.68-11.35,4.18-7.46,11.75-19.07,10-4-9.89-1.82-11.82C21.36,71.42,32.47,67.8,35.85,66.18Z"/><path class="cls-2" d="M19.39,71.42s9.22,11,7.05,14.66S7.27,90.77,3.11,84.62,7.46,49.56,13.6,49.1,16.13,64.72,19.39,71.42Z"/><path class="cls-5" d="M45.6,92.85A45.24,45.24,0,1,1,90.84,47.61,45.29,45.29,0,0,1,45.6,92.85Zm0-84.48A39.24,39.24,0,1,0,84.84,47.61,39.29,39.29,0,0,0,45.6,8.37Z"/><path class="cls-5" d="M15.34,80.06a3,3,0,0,1-2.12-.88,3,3,0,0,1,0-4.24L72.76,15.39A3,3,0,0,1,77,19.64L17.46,79.18A3,3,0,0,1,15.34,80.06Z"/><path class="cls-1" d="M49.94,34.42S38.55,55.91,57.06,59.36c27.29,5.09,17-23.48,17-23.48l-2.8,4.6L52.9,38.12Z"/><path class="cls-3" d="M59.85,38.88s2.38,17.33-13.41,11.44c0,0-1.35-12.4,5.44-17.81l1.44,5.25Z"/><path class="cls-3" d="M66.54,39.61s-6.19,14.22,7.55,15.33c0,0,5.1-8.74-.5-19.58l-3.73,4.57Z"/><circle class="cls-1" cx="54.41" cy="46.6" r="1.14"/><circle class="cls-1" cx="69.3" cy="49.31" r="1.14"/><path class="cls-3" d="M60,52.78a1,1,0,0,1-.24,0c-1.43-.26-1.46-2.45-1.46-2.54a.25.25,0,0,1,.25-.25h0a.25.25,0,0,1,.25.25s0,1.86,1.05,2.05,1.46-1.71,1.46-1.73a.25.25,0,0,1,.3-.19.25.25,0,0,1,.19.3C61.81,50.74,61.33,52.78,60,52.78Z"/><path class="cls-3" d="M63,53.33l-.24,0c-1.44-.27-1.46-2.46-1.46-2.55a.25.25,0,0,1,.25-.25h0a.25.25,0,0,1,.25.25s0,1.86,1,2.05,1.46-1.71,1.46-1.73a.25.25,0,0,1,.49.11C64.79,51.28,64.31,53.33,63,53.33Z"/><path class="cls-5" d="M60.07,48.51l3.67.67s-1.1,2.34-2.25,1.94C60.6,50.82,60.07,48.51,60.07,48.51Z"/><polygon class="cls-5" points="72.04 40.62 74.05 40.98 73.55 38.15 72.04 40.62"/><polygon class="cls-5" points="50.1 36.62 52.1 36.98 51.6 34.15 50.1 36.62"/><path class="cls-6" d="M55,44.81A3.34,3.34,0,0,1,53,44a.24.24,0,0,1,0-.35.25.25,0,0,1,.35,0,2.6,2.6,0,0,0,1.79.71,1.53,1.53,0,0,0,1.1-.68.24.24,0,0,1,.35,0,.25.25,0,0,1,0,.35,2.07,2.07,0,0,1-1.46.87Z"/><path class="cls-6" d="M71.13,47.44a1.88,1.88,0,0,1-.62-.11,3.21,3.21,0,0,1-1.61-1.68.25.25,0,0,1,.13-.32.24.24,0,0,1,.33.13,2.84,2.84,0,0,0,1.32,1.4A1.56,1.56,0,0,0,72,46.71a.26.26,0,0,1,.34.1.25.25,0,0,1-.1.34A2.3,2.3,0,0,1,71.13,47.44Z"/></g></g></svg>