<svg xmlns="http://www.w3.org/2000/svg" viewBox="0 0 84.41 74.41"><defs><style>.cls-1{fill:#fff;}.cls-2{fill:#3e2d4a;}.cls-3{fill:#c05c5d;}.cls-4{fill:#f3e6d5;}</style></defs><title>contaminated_objects</title><g id="Layer_2" data-name="Layer 2"><g id="OBJECTS"><circle class="cls-1" cx="42.94" cy="37.2" r="37.2"/><path class="cls-2" d="M15.2,36.15S34.71,18.39,52.6,19.91,84.41,38.28,84.41,38.28,66.28,54.54,50.59,53.82,15.2,36.15,15.2,36.15Z"/><path class="cls-3" d="M20.17,36.32S35.71,21.13,51.28,22.41,79.42,38.8,79.42,38.8,63.62,52,50,51.37,20.17,36.32,20.17,36.32Z"/><path class="cls-2" d="M56.26,21.33l1.39,32.25s12-3.59,23-15.12C80.65,38.46,67.26,21.71,56.26,21.33Z"/><path class="cls-2" d="M5,25.48s10.18,5.21,12.5,11.61A25.46,25.46,0,0,1,0,44.12l10.45-7.75S5.39,30.14,5,25.48Z"/><path class="cls-1" d="M21.79,36.47l34-2.28-.17,3.2S25.59,39.14,21.79,36.47Z"/><path class="cls-1" d="M50.75,25.16l1.09,23.15S46.67,36.53,50.75,25.16Z"/><path class="cls-1" d="M41.6,25.45,42.7,48.6S37.52,36.82,41.6,25.45Z"/><path class="cls-1" d="M32.93,28l.79,16.75S29.7,36.28,32.93,28Z"/><path class="cls-4" d="M79.19,41.59s-5.2-6.71-8,.56C71.15,42.15,75.41,38.39,79.19,41.59Z"/><circle class="cls-4" cx="67.23" cy="33.71" r="3.93"/><circle class="cls-2" cx="67.23" cy="33.71" r="2.03"/><path class="cls-2" d="M58.42,21.09S49.82,15.42,46.78,14C46.78,14,46.28,22.91,58.42,21.09Z"/><path class="cls-2" d="M46.83,59.89S55.9,55,58.58,53C58.58,53,51,48.32,46.83,59.89Z"/></g></g></svg>