<svg xmlns="http://www.w3.org/2000/svg" viewBox="0 0 80.32 74.41"><defs><style>.cls-1{fill:#fff;}.cls-2{fill:#c05c5d;}.cls-3{fill:#df9f85;}.cls-4{fill:#e6b56f;}.cls-5{fill:#3e2d4a;}</style></defs><title>human_contact</title><g id="Layer_2" data-name="Layer 2"><g id="OBJECTS"><circle class="cls-1" cx="39.1" cy="37.2" r="37.2"/><path class="cls-2" d="M22.24,23.93S36.57,43,40.15,44.62s8.08,1.22,8.47,3.05-7.52-1.26-6.26,1.57,6.19,6,6.21,8.9S40.74,52,40.74,52s7.4,8.2,4.95,8.39S36.9,52.6,36.9,52.6,44,63.12,41.64,62.16,17.49,36,14.13,33.36,22.24,23.93,22.24,23.93Z"/><path class="cls-3" d="M63.92,28.57S47.57,46,43.84,47.16s-8.17.33-8.76,2.11,7.62-.44,6.05,2.24S34.32,56.85,34,59.68s8.46-5.22,8.46-5.22-8.26,7.34-5.84,7.8,9.59-6.81,9.59-6.81-8.2,9.68-5.76,9S67.3,41.11,70.94,38.83,63.92,28.57,63.92,28.57Z"/><path class="cls-4" d="M48.56,39s5.84,10.9,11.21,12.06S77.47,40.34,80,35.22,69.41,16.1,65.59,15.65,45.86,29.3,48.56,39Z"/><path class="cls-5" d="M24.21,16.18S35.6,28.46,34.68,33.41,26.32,44.3,20.33,46.24,0,36.63,0,30.92,18.19,8.35,24.21,16.18Z"/></g></g></svg>