<svg xmlns="http://www.w3.org/2000/svg" viewBox="0 0 87.37 92.68"><defs><style>.cls-1{fill:#fff;}.cls-2{fill:#e6b56f;}.cls-3{fill:#3e2d4a;}.cls-4{fill:#df9f85;}.cls-5{fill:#c05c5d;}.cls-6{fill:#fffcf6;}</style></defs><title>nose_rag</title><g id="Layer_2" data-name="Layer 2"><g id="OBJECTS"><circle class="cls-1" cx="41.61" cy="46.77" r="41.61"/><path class="cls-2" d="M14.29,87.12H71.84s2-33.09-5.32-37.93-40-3.18-47.17,1.7C1.24,63.27,14.29,87.12,14.29,87.12Z"/><path class="cls-3" d="M23.87,42.22a.38.38,0,0,1-.24-.09c-.15-.13-3.85-3.23-1.83-9.49a48,48,0,0,1,2-5.11,18.42,18.42,0,0,0,2-8,.38.38,0,0,1,.39-.36.37.37,0,0,1,.36.39,19.12,19.12,0,0,1-2.11,8.33,46.27,46.27,0,0,0-2,5c-1.86,5.75,1.45,8.57,1.59,8.68a.38.38,0,0,1,.05.53A.37.37,0,0,1,23.87,42.22Z"/><circle class="cls-3" cx="39.6" cy="4.71" r="4.71"/><path class="cls-3" d="M23.45,40.39s1.38,2.85,7,3.85,10.06-1,14.42.54,10.64-.48,11.88-2.31,1-22.08-2.44-25.48S32.91,10.76,29,14.73,21,38.11,23.45,40.39Z"/><circle class="cls-3" cx="40.5" cy="23.83" r="15.51"/><path class="cls-4" d="M46.87,37.38s1,12.08,0,13.42-7.38.33-9.06,0-2.35-13.42-1.34-13.42S46.67,34.68,46.87,37.38Z"/><path class="cls-4" d="M27.84,23.25s.64,18.82,13.37,19.64,12.71-25.72,8.11-28.24S25.49,12.6,27.84,23.25Z"/><path class="cls-5" d="M40.91,27.28s2.43,5.79,1.81,6.18a3.72,3.72,0,0,1-2.95-.12C39.27,32.92,39.92,26.63,40.91,27.28Z"/><path class="cls-3" d="M37.86,13.21s-4.56,2.2-5.43,6.35S32,34.31,27.18,33.82C27.18,33.82,17.81,12.83,37.86,13.21Z"/><path class="cls-3" d="M40.27,13.3c-.42.29,4.7.28,7.63,3.83S51.52,29.55,52,29.71s2.26-11-.95-14.34S42.63,11.61,40.27,13.3Z"/><path class="cls-5" d="M36.64,41.17a11.34,11.34,0,0,0,10.1.18s.4,3.16,0,3.89-8.55,1.25-10.15-2.34C36.59,42.9,36.18,41,36.64,41.17Z"/><path class="cls-4" d="M50.88,30.47s1.22-4.72,3.34-3,.21,6.6-1.89,7S49.72,32.9,50.88,30.47Z"/><path class="cls-4" d="M30.8,29.71s-.86-4.79-3.1-3.27S27,33,29.06,33.61,31.78,32.22,30.8,29.71Z"/><path class="cls-3" d="M45.63,24.63s2.11-1.42,3.67.13c1.37,1.36-1.52.45-2.52.75S44.42,25.87,45.63,24.63Z"/><path class="cls-3" d="M36.82,25s-2-1.54-3.67-.08c-1.45,1.28,1.5.53,2.48.89S38,26.27,36.82,25Z"/><path class="cls-6" d="M35.81,34.32h-.16A4.15,4.15,0,0,1,35.8,26H36a4.14,4.14,0,0,1-.15,8.28Zm0-7.79a3.65,3.65,0,0,0-.13,7.29h.14a3.64,3.64,0,0,0,.13-7.28Z"/><path class="cls-6" d="M46.15,33.74H46a4.15,4.15,0,0,1,.16-8.29h.15a4.14,4.14,0,0,1-.15,8.28Zm0-7.79a3.63,3.63,0,0,0-3.64,3.51,3.58,3.58,0,0,0,1,2.62A3.64,3.64,0,0,0,46,33.24h.14A3.64,3.64,0,0,0,46.28,26Z"/><path class="cls-6" d="M32,29.45H32l-1.52-.6a.25.25,0,0,1-.14-.33.24.24,0,0,1,.32-.14l1.52.6a.25.25,0,0,1-.09.48Z"/><path class="cls-6" d="M49.9,28.79a.25.25,0,0,1-.24-.18.25.25,0,0,1,.17-.31l2.11-.6a.24.24,0,0,1,.3.17.25.25,0,0,1-.17.31l-2.1.6Z"/><path class="cls-3" d="M39.41,12.22s.57,10.2,3.38,11.13,9.73.67,10.07-.44-5.37-10.1-9.45-11.54C36.24,8.84,30.05,20.5,30.87,23.31s7,.35,8.29,0S39.14,14.24,39.41,12.22Z"/><path class="cls-6" d="M39.7,30.36a.25.25,0,0,1,0-.5l2.57-.2c.15,0,.25.09.27.23a.25.25,0,0,1-.23.26l-2.57.21Z"/><path class="cls-3" d="M36.66,9.42a.41.41,0,0,1-.18-.05A4.27,4.27,0,0,1,34,6.43C33.51,3.71,36,.78,36.1.66a.37.37,0,1,1,.56.49s-2.34,2.77-1.88,5.14a3.53,3.53,0,0,0,2,2.42.38.38,0,0,1,.16.5A.39.39,0,0,1,36.66,9.42Z"/><path class="cls-3" d="M42.08,10.25a.35.35,0,0,1-.28-.13.37.37,0,0,1,0-.53s2.77-2.35,2.71-4.76a3.53,3.53,0,0,0-1.63-2.72.38.38,0,0,1,.45-.6,4.26,4.26,0,0,1,1.93,3.3c.07,2.78-2.85,5.25-3,5.36A.35.35,0,0,1,42.08,10.25Z"/><path class="cls-3" d="M55.53,41.9a.37.37,0,0,1-.3-.14.38.38,0,0,1,.06-.53,6.93,6.93,0,0,0,2.37-6.6,48,48,0,0,0-1.48-5.24c-1-3.27-2.14-6.64-2.16-9.9a.37.37,0,0,1,.37-.38h0a.38.38,0,0,1,.38.38c0,3.14,1.09,6.46,2.12,9.67a48.33,48.33,0,0,1,1.51,5.32,7.69,7.69,0,0,1-2.65,7.34A.3.3,0,0,1,55.53,41.9Z"/><path class="cls-3" d="M56.78,24.8h-.05a.37.37,0,0,1-.33-.41c.51-4.12-.28-7.5-2.33-10-3.31-4.08-8.86-4.58-8.92-4.59A.37.37,0,0,1,45.21,9c.24,0,5.92.53,9.44,4.85,2.19,2.69,3,6.25,2.5,10.59A.38.38,0,0,1,56.78,24.8Z"/><path class="cls-5" d="M41.5,39.43a3.42,3.42,0,0,1-1.28-.24.37.37,0,0,1-.2-.49.38.38,0,0,1,.49-.2,2.58,2.58,0,0,0,1.92,0,.38.38,0,0,1,.34.68A2.93,2.93,0,0,1,41.5,39.43Z"/><path class="cls-5" d="M29.51,32.44l-.11,0a.38.38,0,0,1-.25-.47,3.74,3.74,0,0,0-1-3.74.39.39,0,0,1,0-.53.38.38,0,0,1,.53,0,4.44,4.44,0,0,1,1.19,4.52A.38.38,0,0,1,29.51,32.44Z"/><path class="cls-5" d="M51.74,33.54h0a.38.38,0,0,1-.34-.41,7.56,7.56,0,0,1,1.7-4.36.39.39,0,0,1,.53,0,.37.37,0,0,1,0,.53,6.94,6.94,0,0,0-1.49,3.91A.38.38,0,0,1,51.74,33.54Z"/><path class="cls-4" d="M29.89,50.27S38.41,60.45,45,57.72s12.71-10.1,9.41-11.08S24.73,46.17,29.89,50.27Z"/><path class="cls-1" d="M52.74,36.55s2.57,18.62.17,20.72-5.44.27-9.51,1.66-4.22-4.26-3.94-7.17S41.07,30.41,52.74,36.55Z"/><path class="cls-3" d="M7.19,65.37l-5,14.88L38.88,92.68s5.61-14.25,4.91-14.49Z"/><path class="cls-4" d="M14.45,83.36s6.28-4.33,6.06-3.23-2.65,3.23-2.65,3.23,4.41-3.41,4.7-1.7S21.3,85,21.3,85s3.1-2.47,3.61-1.19-3.51,6.94-7,6.77S12.72,84.52,14.45,83.36Z"/><path class="cls-1" d="M16.77,75l13.75,5.6s2.4-7.27,1.94-8.12S27.06,71.33,25.7,70s-.87-3-3.14-2.68S16.77,75,16.77,75Z"/><path class="cls-5" d="M41.83,38.2a.32.32,0,0,1-.13,0c-1.08-.39-1.62-.88-1.64-1.48,0-1,1.35-1.61,1.62-1.73a.37.37,0,1,1,.3.68c-.49.22-1.18.7-1.17,1,0,.09.1.41,1.15.8a.37.37,0,0,1,.23.48A.38.38,0,0,1,41.83,38.2Z"/><path class="cls-3" d="M37.32,31a.38.38,0,0,1-.25-.09c-1.57-1.39-2.67-1-2.72-1a.38.38,0,0,1-.48-.22.37.37,0,0,1,.21-.48c.07,0,1.54-.58,3.48,1.14a.38.38,0,0,1,0,.53A.39.39,0,0,1,37.32,31Z"/><path class="cls-3" d="M45,31.13a.37.37,0,0,1-.28-.13.38.38,0,0,1,0-.53c1.94-1.71,3.42-1.16,3.48-1.14a.38.38,0,0,1,.22.49A.37.37,0,0,1,48,30c-.06,0-1.16-.37-2.72,1A.35.35,0,0,1,45,31.13Z"/><path class="cls-2" d="M68.87,83s4,2.31,11-3.79,9.49-10.9,5.8-17.31S72.87,48.39,70.53,48.4,59.87,73.88,68.87,83Z"/><path class="cls-4" d="M60.24,38.66S50.5,34.49,46.9,35.45s3.39,1.89,4.82,2.58-5.22-.45-6,.07,6,2.48,6,2.48-6.09-.18-6.51.74,5.61,2,5.61,2-4.59.76-4.46,1.74,8.59.67,11.35,4.18S64.39,71.82,76,70.07,87.5,61.16,79.13,52,63.62,40.27,60.24,38.66Z"/></g></g></svg>