<svg xmlns="http://www.w3.org/2000/svg" viewBox="0 0 280.52 238.59"><defs><style>.cls-1,.cls-10,.cls-12,.cls-19,.cls-3{fill:#3e2d4a;}.cls-1{opacity:0.1;}.cls-2{fill:#f3d78a;opacity:0.5;}.cls-4{fill:#df9f85;}.cls-5,.cls-7{fill:#c05c5d;}.cls-6{fill:#fffcf6;}.cls-7{opacity:0.21;}.cls-8{fill:#e6b56f;}.cls-9{fill:#fff;}.cls-10,.cls-12,.cls-19{font-size:10px;font-family:Graphik-Black, Graphik;font-weight:800;}.cls-11{letter-spacing:-0.03em;}.cls-12{letter-spacing:-0.06em;}.cls-13{letter-spacing:0em;}.cls-14{letter-spacing:-0.01em;}.cls-15{letter-spacing:-0.07em;}.cls-16{letter-spacing:-0.05em;}.cls-17{letter-spacing:0em;}.cls-18{letter-spacing:0em;}.cls-19{letter-spacing:-0.02em;}.cls-20{fill:#b23234;}.cls-21{fill:#db9055;}.cls-22{fill:#f6e7da;}</style></defs><title>symptoms</title><g id="Layer_2" data-name="Layer 2"><g id="OBJECTS"><path class="cls-1" d="M79.8,30.25s40.4-20.91,72.7-7.52c26.8,11.11,16.37,25.54,40,24.71s47,28.31,35.27,65.88c-6.12,19.54,22.43,35.62,4.38,57.5C209.72,198,163.72,177.43,89,187.14c-39.38,5.12-65.35-33.62-41.3-68,14.48-20.73,7-28.51,6.75-50.25C54.16,45.79,79.8,30.25,79.8,30.25Z"/><circle class="cls-2" cx="204.11" cy="22.52" r="22.52"/><circle class="cls-2" cx="243.15" cy="189.36" r="22.52"/><circle class="cls-2" cx="22.52" cy="51.23" r="22.52"/><circle class="cls-2" cx="22.52" cy="185.07" r="22.52"/><circle class="cls-2" cx="243.15" cy="125.54" r="22.52"/><circle class="cls-2" cx="243.15" cy="69.57" r="22.52"/><path class="cls-3" d="M101.43,100.75a.5.5,0,0,1-.31-.1,14.27,14.27,0,0,1-3.59-4.84c-1.39-2.94-2.63-7.87-.62-14.66a98.41,98.41,0,0,1,4-10.78c2.19-5.25,3.77-9,3.9-17.07a.49.49,0,0,1,.51-.5.52.52,0,0,1,.49.51c-.13,8.23-1.83,12.3-4,17.45a97.4,97.4,0,0,0-3.91,10.67c-3.67,12.39,3.79,18.37,3.87,18.43a.5.5,0,0,1,.08.7A.48.48,0,0,1,101.43,100.75Z"/><circle class="cls-3" cx="132.54" cy="21.65" r="9.87"/><path class="cls-3" d="M100.47,97.23s3,5.9,14.91,7.72,21-2.68,30.24.41,22.27-1.53,24.79-5.42,1-46.34-6.39-53.28-45.19-12-53.16-3.47S95.18,92.57,100.47,97.23Z"/><circle class="cls-3" cx="135.39" cy="61.67" r="32.51"/><path class="cls-4" d="M108.82,61.08s2.28,39.43,29,40.5S163.18,47.06,153.4,42,103.36,38.89,108.82,61.08Z"/><path class="cls-5" d="M136.41,68.88s5.39,12,4.09,12.86-5.13.78-6.18-.09S134.3,67.57,136.41,68.88Z"/><circle class="cls-3" cx="126.02" cy="73.07" r="2.51"/><circle class="cls-3" cx="147.51" cy="71.38" r="2.51"/><path class="cls-3" d="M129.33,39.55s-9.46,4.85-11.07,13.57-.14,30.94-10.3,30.16C108,83.28,87.29,39.75,129.33,39.55Z"/><path class="cls-3" d="M134.37,39.61c-.85.65,9.88.37,16.19,7.66s8.21,25.84,9.17,26.16,4.19-23.14-2.7-30S139.23,36,134.37,39.61Z"/><path class="cls-4" d="M157.46,75.07s2.32-9.94,6.86-6.53.75,13.83-3.63,14.87S155.15,80.22,157.46,75.07Z"/><path class="cls-4" d="M115.36,74.49s-2-10-6.68-6.71-1.13,13.8,3.22,15S117.53,79.7,115.36,74.49Z"/><path class="cls-3" d="M146.29,62.6s4.72-2.49,7.63,1.09c2.56,3.14-3.28.59-5.43,1S143.51,64.92,146.29,62.6Z"/><path class="cls-3" d="M127.54,63.51S122.71,61.26,120,65c-2.39,3.27,3.31.43,5.48.73S130.45,65.68,127.54,63.51Z"/><path class="cls-3" d="M144.58,89.09s-3.08-4.65-6.41-4.36-5.88,4.58-6.33,4.76C131.84,89.49,137,91.93,144.58,89.09Z"/><path class="cls-6" d="M125.87,83.88h-.13a8.66,8.66,0,0,1-8.54-8.78,8.71,8.71,0,0,1,8.66-8.55H126a8.67,8.67,0,0,1-.11,17.33Zm0-16.33a7.69,7.69,0,0,0-7.66,7.56,7.67,7.67,0,0,0,7.56,7.77h.11a7.67,7.67,0,0,0,.1-15.33Z"/><path class="cls-6" d="M147.51,82.15h-.12a8.67,8.67,0,0,1,.12-17.33h.12a8.67,8.67,0,0,1-.12,17.33Zm0-16.33a7.67,7.67,0,0,0-.11,15.33h.11a7.69,7.69,0,0,0,7.66-7.56,7.67,7.67,0,0,0-7.56-7.77Z"/><path class="cls-6" d="M117.91,73.86l-.17,0-3.2-1.18a.5.5,0,0,1,.34-.94l3.21,1.18a.49.49,0,0,1,.29.64A.5.5,0,0,1,117.91,73.86Z"/><path class="cls-6" d="M155.31,71.59a.51.51,0,0,1-.48-.36.5.5,0,0,1,.33-.62l4.39-1.37a.5.5,0,0,1,.29,1l-4.38,1.37A.4.4,0,0,1,155.31,71.59Z"/><path class="cls-3" d="M134.22,48.78s0,10,5.95,11.78,21.22,1,21.06-1.43c-1.4-22-11.74-20.9-20.38-23.72-15.15-4.93-27.54,19.8-25.68,25.65s14.64.39,17.38-.44S133.77,53,134.22,48.78Z"/><path class="cls-7" d="M118.9,82.46s13.48-7.77,19.39-6.68,16.3,1.25,16.77,3.38-13.16,1.16-17.36,1.57S117.41,86,118.9,82.46Z"/><path class="cls-5" d="M126.44,77.26A.5.5,0,0,1,126,77a.49.49,0,0,1,.27-.65c1.36-.55,1.61-1,1.61-1a.47.47,0,0,1,.63-.29.51.51,0,0,1,.3.65c-.06.19-.4.84-2.16,1.55A.43.43,0,0,1,126.44,77.26Z"/><path class="cls-5" d="M147,76.2a5.14,5.14,0,0,1-2.15-.64.5.5,0,1,1,.44-.9,3.43,3.43,0,0,0,1.81.54.47.47,0,0,1,.63.27.52.52,0,0,1-.28.66A1.16,1.16,0,0,1,147,76.2Z"/><path class="cls-6" d="M134,75.37a.5.5,0,0,1-.05-1l5.37-.54a.49.49,0,0,1,.54.44.5.5,0,0,1-.44.55l-5.37.55Z"/><path class="cls-3" d="M126.59,31.38a.59.59,0,0,1-.22-.05c-2.83-1.38-4.55-3.35-5.1-5.85-1.22-5.55,3.74-11.7,4-12a.5.5,0,1,1,.78.64c0,.06-4.87,6-3.75,11.11.48,2.18,2,3.92,4.56,5.16a.5.5,0,0,1,.23.67A.51.51,0,0,1,126.59,31.38Z"/><path class="cls-3" d="M138,32.86a.48.48,0,0,1-.38-.17.49.49,0,0,1,.05-.7c.06,0,5.79-5.15,5.52-10.34-.11-2.24-1.34-4.21-3.65-5.85a.49.49,0,0,1-.12-.69.5.5,0,0,1,.7-.12c2.57,1.83,3.94,4,4.07,6.61.29,5.67-5.61,10.92-5.86,11.14A.54.54,0,0,1,138,32.86Z"/><path class="cls-3" d="M167.75,98.52a.5.5,0,0,1-.32-.89c.07-.06,6.65-5.55,4.74-14.24a99.29,99.29,0,0,0-3.38-10.94c-2.37-6.76-4.81-13.76-5-20.55a.5.5,0,0,1,.49-.51.52.52,0,0,1,.51.48c.2,6.63,2.61,13.56,4.95,20.25a101.71,101.71,0,0,1,3.42,11.06c2,9.3-5,15.17-5.09,15.22A.47.47,0,0,1,167.75,98.52Z"/><path class="cls-3" d="M169.52,62.8h-.05a.5.5,0,0,1-.44-.55c.86-8.75-1-15.85-5.47-21.11-7.24-8.46-19-9.24-19.11-9.24a.5.5,0,0,1-.47-.53.49.49,0,0,1,.53-.47c.12,0,12.3.81,19.81,9.59C169,46,170.91,53.32,170,62.35A.49.49,0,0,1,169.52,62.8Z"/><path class="cls-5" d="M133.71,90.07s5-3.49,9.44-.5C143.15,89.57,138,91.52,133.71,90.07Z"/><path class="cls-5" d="M137,93.66h-1.18a.5.5,0,0,1-.49-.5.49.49,0,0,1,.51-.5,30,30,0,0,0,4.5-.15.5.5,0,0,1,.36.93A17.74,17.74,0,0,1,137,93.66Z"/><path class="cls-5" d="M112.76,80l-.14,0a.5.5,0,0,1-.34-.62A8.17,8.17,0,0,0,110,71.25a.5.5,0,0,1,.65-.76,9.05,9.05,0,0,1,2.62,9.12A.5.5,0,0,1,112.76,80Z"/><path class="cls-5" d="M159.41,81.17h0a.5.5,0,0,1-.47-.53,15.39,15.39,0,0,1,3.28-9,.5.5,0,0,1,.73.67,14.75,14.75,0,0,0-3,8.43A.5.5,0,0,1,159.41,81.17Z"/><path class="cls-4" d="M149.37,97.5s1.59,17.78-.52,20.6-15.47.7-19,0S126.34,88,127.05,90C132.92,106.37,149,91.85,149.37,97.5Z"/><path class="cls-5" d="M128.32,99.26a24.19,24.19,0,0,0,20.26-1s.83,6.62,0,8.15-17.91,2.62-21.27-4.91C127.31,101.54,127.35,98.93,128.32,99.26Z"/><path class="cls-8" d="M76.54,238.59H199.23s6.27-106.67-9.1-118.27-83-5.8-99,4.11S76.54,238.59,76.54,238.59Z"/><path class="cls-5" d="M137.8,116s-4.73,41-2.67,46.71-.58,31-1.42,34.3-26.33,4.69-32.91,2.05,1.68-73.55,5.36-86.67S137.39,107,137.8,116Z"/><path class="cls-4" d="M62.94,65.75S73.19,85.39,80.38,85.57s31.43-29.33,40.37-29.64,16.61.57,16.64-1.56S125,49.91,125,49.91s18,1.15,14.3-.82-12.66-3.75-12.66-3.75,13,.53,13.05-.86-13.49-3.43-13.49-3.43,16.53-.53,13.51-2.8S131,37,115.56,39.31,65.34,62.22,62.94,65.75Z"/><path class="cls-8" d="M80.93,64.81s16.41,9.77,9.26,20.85C82.59,97.45,83,93.94,81.7,98.72s20.36,14.06,21.35,18.14-9.24,54.3-18.81,52.24C75.91,167.31,29.61,141,23,114.78,17.8,94.42,59.84,44.63,80.93,64.81Z"/><path class="cls-9" d="M123.87,179.36s-18.17,40-11.49,45.4,12.07,1.87,18,5.35,11.58,1.74,16.33-1.29S139.08,186,134,182.16,124.79,177.28,123.87,179.36Z"/><path class="cls-8" d="M162.55,116s36.34-6.94,46.22,11.15c7.41,13.57,26.54,73.92,4.78,85.22s-42.19,5.39-50.09-2.22,6.16-46.86,15.53-49.79S162.55,116,162.55,116Z"/><text class="cls-10" transform="translate(187.27 17.64)">HEA<tspan class="cls-11" x="21.74" y="0">DA</tspan><tspan x="36.15" y="0">CHE</tspan></text><text class="cls-10" transform="translate(6.87 50.48)">FEVER</text><text class="cls-12" transform="translate(6.65 192.15)">D<tspan class="cls-13" x="6.91" y="0">YPSNOEA</tspan></text><text class="cls-10" transform="translate(207.17 122.69)">TH<tspan class="cls-14" x="14.23" y="0">R</tspan><tspan class="cls-11" x="21.23" y="0">O</tspan><tspan class="cls-15" x="29.08" y="0">A</tspan><tspan x="36.03" y="0">T </tspan><tspan class="cls-16" x="44.17" y="0">P</tspan><tspan class="cls-13" x="50.31" y="0">AIN</tspan></text><text class="cls-10" transform="translate(228.3 200.43)">SHAKING<tspan x="0" y="12">CHIL</tspan><tspan class="cls-17" x="25.06" y="12">L</tspan><tspan class="cls-18" x="30.83" y="12">S</tspan></text><text class="cls-19" transform="translate(212.6 58.33)">R<tspan class="cls-18" x="6.95" y="0">UNNY N</tspan><tspan class="cls-14" x="47.09" y="0">O</tspan><tspan class="cls-18" x="55.19" y="0">SE</tspan></text><path class="cls-20" d="M201,84.3H142.43a.75.75,0,0,1,0-1.5h58.14l9.68-16.61a.74.74,0,0,1,.65-.37h47.66a.75.75,0,0,1,0,1.5H211.33l-9.68,16.61A.76.76,0,0,1,201,84.3Z"/><path class="cls-20" d="M125.48,57H57.28a.74.74,0,0,1-.62-.33L45.36,40H3.43a.75.75,0,1,1,0-1.5H45.75a.73.73,0,0,1,.62.33L57.68,55.52h67.8a.75.75,0,0,1,0,1.5Z"/><path class="cls-20" d="M207.27,204h-20a.75.75,0,0,1,0-1.5h19.6l11-16.57a.75.75,0,0,1,.63-.34h40.07a.75.75,0,0,1,0,1.5H218.89l-11,16.58A.73.73,0,0,1,207.27,204Z"/><path class="cls-20" d="M66.35,179.14H3.43a.75.75,0,0,1,0-1.5H66L81.2,161a.75.75,0,0,1,.56-.25h58.29a.75.75,0,0,1,0,1.5h-58L66.91,178.89A.73.73,0,0,1,66.35,179.14Z"/><path class="cls-5" d="M187.27,116.49s.45-2.84-13.62-8.93c-11.23-4.87-20.86,3.34-38,4.22S120.08,105.87,108,109c-18.71,4.87-3.82,17.13,2.21,18.51S136.38,162.85,187.27,116.49Z"/><path class="cls-20" d="M258.56,130.76H205.3a.75.75,0,0,1-.59-.29l-15.93-20.69H138.4a.75.75,0,0,1,0-1.5h50.75a.75.75,0,0,1,.59.29l15.93,20.69h52.89a.75.75,0,0,1,0,1.5Z"/><path class="cls-20" d="M160.64,44.37a.75.75,0,0,1-.62-.32.76.76,0,0,1,.19-1l26.63-18.51a.73.73,0,0,1,.43-.13h38.16a.75.75,0,0,1,0,1.5H187.5L161.07,44.23A.76.76,0,0,1,160.64,44.37Z"/><path class="cls-9" d="M138.31,82.3s-.05,1.16.62,1.27a1.38,1.38,0,0,0,1.57-1.83A15.14,15.14,0,0,1,138.31,82.3Z"/><path class="cls-21" d="M207.69,178.39h-.15a1,1,0,0,1-.85-.88c-.83-1-6.43-3-10.16-4.33-7.39-2.66-10.7-4-11.42-5.43-.6-1.22-.33-3,0-5.22.55-3.53,1.22-7.93-1-12.17-3.88-7.32-3.51-18.17-3.49-18.63a1,1,0,0,1,2,.07c0,.11-.37,10.79,3.26,17.63,2.55,4.82,1.79,9.78,1.23,13.41-.27,1.73-.52,3.37-.19,4,.6.93,6.44,3,10.3,4.43,8.71,3.14,11.73,4.4,11.46,6.24A1,1,0,0,1,207.69,178.39Z"/><path class="cls-21" d="M181.6,170.17a.84.84,0,0,1-.27,0c-3.3-.9-8.44-1.84-8.49-1.85a1,1,0,0,1,.36-2c.21,0,5.27,1,8.66,1.88a1,1,0,0,1,.7,1.23A1,1,0,0,1,181.6,170.17Z"/><path class="cls-21" d="M199.56,219.63h-.05c-18.51-.84-36.95-8.72-37.95-16.22-.31-2.36-.54-3.54-.68-4.12a1,1,0,0,1-.53-1,1.17,1.17,0,0,1,1.13-1.12h0c1,0,1.34.6,2.06,6,.77,5.83,17.56,13.65,36,14.49a1,1,0,0,1,0,2Z"/><path class="cls-21" d="M166.38,201.93l-.23,0a1,1,0,0,1-.75-1.2c0-.19,4.42-19.47,8.51-33.34a1,1,0,1,1,1.91.57c-4.07,13.8-8.43,33-8.47,33.21A1,1,0,0,1,166.38,201.93Z"/><path class="cls-21" d="M79.61,160.06h-.15a1,1,0,0,1-.84-1.14c.1-.69,2.57-17,6-24.61a89.52,89.52,0,0,0,5-15,1,1,0,1,1,2,.44,90.82,90.82,0,0,1-5.13,15.37c-3.27,7.38-5.78,23.93-5.81,24.1A1,1,0,0,1,79.61,160.06Z"/><path class="cls-21" d="M64.36,103.17a72.33,72.33,0,0,1-8.93-.58,1,1,0,0,1-.86-1.12,1,1,0,0,1,1.12-.87,60,60,0,0,0,20.76-.7,20.06,20.06,0,0,0-6.93-1C63.78,99.16,55.39,94,55,93.82a1,1,0,0,1,1-1.71c.09,0,8.24,5,13.34,4.78,4.86-.25,10.62,1.91,11.14,2.84a1,1,0,0,1,0,1.08,1.15,1.15,0,0,1-1,.44c-.16,0-.62.13-1.08.24A58.15,58.15,0,0,1,64.36,103.17Z"/><path class="cls-21" d="M88.94,81.67a1,1,0,0,1-.9-.56S85.52,76,81.27,74C76.44,71.69,71,63.74,70.75,63.4a1,1,0,0,1,1.66-1.13c0,.08,5.38,7.85,9.71,9.9,4.9,2.32,7.61,7.84,7.72,8.07a1,1,0,0,1-.46,1.33A1,1,0,0,1,88.94,81.67Z"/><path class="cls-20" d="M135.39,139.79h-.11a.49.49,0,0,1-.37-.6c0-.11,2.4-10.53,3.1-15.83,1.09-8.26-2.61-11.14-2.65-11.17a.5.5,0,0,1,.6-.8c.17.13,4.21,3.21,3,12.1-.7,5.34-3.1,15.82-3.12,15.92A.5.5,0,0,1,135.39,139.79Z"/><path class="cls-20" d="M105.9,124.75l-1-.11s.77-6.75,1.18-10.07a23.31,23.31,0,0,1,1.4-5.73.5.5,0,0,1,.66-.27.52.52,0,0,1,.27.66,22.32,22.32,0,0,0-1.34,5.46C106.68,118,105.9,124.75,105.9,124.75Z"/><path class="cls-21" d="M134.3,235.61c-5.71,0-8.84-.19-13.18-.45-5.58-.33-13.23-.79-31.1-1.07a1,1,0,0,1-1-1,1,1,0,0,1,1-1c17.91.28,25.58.74,31.18,1.08,4.3.26,7.41.44,13.06.44a156,156,0,0,0,19.53-1.52,156.39,156.39,0,0,1,15.91-1.4c11.62-.25,20.3,0,20.39,0a1,1,0,0,1,1,1,1,1,0,0,1-1,1c-.09,0-8.72-.26-20.29,0a156.86,156.86,0,0,0-15.71,1.38A157,157,0,0,1,134.3,235.61Z"/><circle class="cls-3" cx="3.43" cy="39.29" r="3"/><circle class="cls-3" cx="223.63" cy="25.11" r="3"/><circle class="cls-3" cx="258.56" cy="66.57" r="3"/><circle class="cls-3" cx="258.56" cy="130.01" r="3"/><circle class="cls-3" cx="258.56" cy="186.36" r="3"/><circle class="cls-3" cx="3.43" cy="179.18" r="3"/><path class="cls-9" d="M187.79,108.5a1.67,1.67,0,0,1-1.47-1c-1.25-2.1-1.65-2.29-4.28-2-2.37.25-3.22-1.46-3.79-2.6a3.24,3.24,0,0,0-.53-.88c-.44-.39-1.61,0-2.11.24l-.44-.9c.22-.11,2.15-1,3.21-.09a3.89,3.89,0,0,1,.77,1.18c.54,1.1,1.1,2.23,2.79,2.06,3-.32,3.79.06,5.24,2.5.39.65.75.58,1.89,0,.87-.46,2.18-1.14,3.06.24l-.84.54c-.34-.54-.68-.46-1.76.1A4,4,0,0,1,187.79,108.5Z"/><path class="cls-9" d="M88.77,44.39a2.23,2.23,0,0,1-.59-.09l.28-1c.61.18.82-.1,1.26-1.23.38-1,.94-2.4,2.66-1.83,2.33.77,2.75.64,4.55-1.29,1.63-1.74,3.4-1,4.57-.52a3.42,3.42,0,0,0,1,.31h0c.59,0,1.22-1.05,1.43-1.56l.93.39c-.1.22-1,2.17-2.36,2.17h0a3.73,3.73,0,0,1-1.36-.39c-1.13-.47-2.3-1-3.46.28-2.06,2.22-2.9,2.45-5.59,1.56-.72-.24-.95.05-1.42,1.24C90.34,43.26,89.9,44.39,88.77,44.39Z"/><path class="cls-9" d="M65.9,170.71a1.63,1.63,0,0,1-1.65-1.26c-.81-2.31-1.17-2.58-3.8-2.83-2.38-.22-2.87-2.07-3.2-3.3a3.28,3.28,0,0,0-.35-1c-.35-.46-1.57-.32-2.11-.18l-.26-1c.24-.06,2.31-.57,3.17.55a4,4,0,0,1,.52,1.31c.31,1.19.64,2.41,2.33,2.57,3,.28,3.7.81,4.64,3.49.25.71.62.72,1.85.36.94-.27,2.36-.68,3,.84l-.93.37c-.23-.6-.58-.59-1.75-.25A5.26,5.26,0,0,1,65.9,170.71Z"/><path class="cls-9" d="M179.6,222.27a1.66,1.66,0,0,1-1.43-.88c-1.35-2-1.76-2.21-4.37-1.81-2.37.37-3.3-1.3-3.92-2.41a3.15,3.15,0,0,0-.57-.85c-.46-.37-1.61.07-2.09.34l-.49-.88c.21-.12,2.1-1.12,3.2-.25a3.79,3.79,0,0,1,.83,1.15c.59,1.07,1.21,2.17,2.88,1.92,3-.47,3.79-.13,5.36,2.24.42.63.78.54,1.89-.11.84-.49,2.12-1.23,3.07.1l-.81.58c-.37-.52-.71-.42-1.76.19A3.86,3.86,0,0,1,179.6,222.27Z"/><path class="cls-22" d="M83.4,49.92a1.67,1.67,0,0,1-.31,0l.13-1c.63.09.79-.22,1.06-1.41.23-1,.57-2.51,2.35-2.21,2.42.41,2.82.23,4.31-2,1.35-2,3.21-1.51,4.44-1.2a3.52,3.52,0,0,0,1,.16c.59-.09,1-1.22,1.18-1.76l1,.24c-.06.24-.62,2.3-2,2.51a3.64,3.64,0,0,1-1.4-.18c-1.19-.3-2.42-.6-3.37.8-1.71,2.5-2.5,2.85-5.3,2.38-.75-.13-.93.19-1.22,1.44C85.05,48.61,84.76,49.92,83.4,49.92Z"/><path class="cls-4" d="M168,175.17s-23.88-8.63-34.25-4.22-18.9,15.81-17.32,16.56,10-5.81,10-5.81-8.63,8.72-7,9.6,9.92-3.79,9.92-3.79-5.81,6.21-3.31,6.68,7.84-4.63,13.41-4.83S152,193.58,159,194.82,168,175.17,168,175.17Z"/><path class="cls-21" d="M204,170.7l-.19,0c-.07,0-7.1-1.34-15.51-3.05a1,1,0,1,1,.4-2c8.39,1.7,15.41,3,15.48,3a1,1,0,0,1-.18,2Z"/></g></g></svg>