<svg xmlns="http://www.w3.org/2000/svg" viewBox="0 0 84.54 93.81"><defs><style>.cls-1{fill:#fff;}.cls-2{fill:#e6b56f;}.cls-3{fill:#3e2d4a;}.cls-4{fill:#df9f85;}.cls-5{fill:#c05c5d;}.cls-6{fill:#fffcf6;}</style></defs><title>wash_hands</title><g id="Layer_2" data-name="Layer 2"><g id="OBJECTS"><circle class="cls-1" cx="41.61" cy="46.77" r="41.61"/><path class="cls-2" d="M14.07,87.12H71.62s2-33.09-5.32-37.93-41.61-3.83-49.21.3S14.07,87.12,14.07,87.12Z"/><path class="cls-3" d="M23.65,42.22a.38.38,0,0,1-.24-.09c-.16-.13-3.85-3.23-1.83-9.49a48,48,0,0,1,2-5.11,18.42,18.42,0,0,0,2-8,.38.38,0,0,1,.75,0,19.18,19.18,0,0,1-2.1,8.32,45.12,45.12,0,0,0-2,5c-1.87,5.78,1.55,8.65,1.59,8.68a.38.38,0,0,1,.05.53A.37.37,0,0,1,23.65,42.22Z"/><circle class="cls-3" cx="39.38" cy="4.71" r="4.71"/><path class="cls-3" d="M23.23,40.39s1.38,2.85,7,3.85,10.06-1,14.41.54,10.65-.48,11.89-2.31,1-22.08-2.44-25.48-21.42-6.23-25.32-2.26S20.76,38.11,23.23,40.39Z"/><circle class="cls-3" cx="40.28" cy="23.83" r="15.51"/><path class="cls-4" d="M46.65,37.38s1,12.08,0,13.42-7.39.33-9.06,0-2.35-13.42-1.35-13.42S46.45,34.68,46.65,37.38Z"/><path class="cls-4" d="M27.62,23.25S28.26,42.07,41,42.89,53.7,17.17,49.1,14.65,25.27,12.6,27.62,23.25Z"/><path class="cls-5" d="M40.69,27.28s2.43,5.79,1.81,6.18a3.72,3.72,0,0,1-3-.12C39.05,32.92,39.7,26.63,40.69,27.28Z"/><circle class="cls-3" cx="35.68" cy="31.09" r="1.2"/><circle class="cls-3" cx="45.95" cy="30.52" r="1.2"/><path class="cls-3" d="M37.64,13.21s-4.56,2.2-5.43,6.35S31.79,34.31,27,33.82C27,33.82,17.59,12.83,37.64,13.21Z"/><path class="cls-3" d="M40.05,13.3c-.42.29,4.7.28,7.63,3.83s3.62,12.42,4.08,12.58,2.26-11-.95-14.34S42.4,11.61,40.05,13.3Z"/><path class="cls-5" d="M36.42,41.17a11.34,11.34,0,0,0,10.1.18s.4,3.16,0,3.89S38,46.49,36.37,42.9C36.37,42.9,36,41,36.42,41.17Z"/><path class="cls-4" d="M50.66,30.47s1.22-4.72,3.34-3,.21,6.6-1.9,7S49.5,32.9,50.66,30.47Z"/><path class="cls-4" d="M30.58,29.71s-.86-4.79-3.1-3.27-.7,6.57,1.36,7.17S31.56,32.22,30.58,29.71Z"/><path class="cls-3" d="M45.47,24.39s2.28-1.13,3.63.61c1.18,1.53-1.57.25-2.6.42S44.12,25.47,45.47,24.39Z"/><path class="cls-3" d="M36.52,24.61s-2.28-1.12-3.62.62c-1.18,1.53,1.57.24,2.6.41S37.88,25.68,36.52,24.61Z"/><path class="cls-6" d="M35.59,34.32h-.16A4.15,4.15,0,0,1,35.58,26h.16a4.14,4.14,0,0,1-.15,8.28Zm0-7.79a3.65,3.65,0,0,0-.13,7.29h.14a3.64,3.64,0,0,0,.13-7.28Z"/><path class="cls-6" d="M45.93,33.74h-.16a4.15,4.15,0,0,1,.15-8.29h.16a4.14,4.14,0,0,1-.15,8.28Zm0-7.79a3.65,3.65,0,0,0-.13,7.29h.14A3.64,3.64,0,0,0,46.06,26Z"/><path class="cls-6" d="M31.82,29.45h-.1l-1.51-.6a.25.25,0,0,1-.14-.33.24.24,0,0,1,.32-.14l1.52.6a.25.25,0,0,1-.09.48Z"/><path class="cls-6" d="M49.68,28.79a.25.25,0,0,1-.24-.18.25.25,0,0,1,.17-.31l2.1-.6a.24.24,0,0,1,.31.17.25.25,0,0,1-.17.31l-2.11.6Z"/><path class="cls-3" d="M39.19,12.22s.57,10.2,3.38,11.13,9.73.67,10.07-.44-5.37-10.1-9.45-11.54C36,8.84,29.83,20.5,30.65,23.31s7,.35,8.29,0S38.92,14.24,39.19,12.22Z"/><path class="cls-6" d="M39.48,30.36a.25.25,0,0,1,0-.5l2.57-.2a.22.22,0,0,1,.26.23.24.24,0,0,1-.22.26l-2.57.21Z"/><path class="cls-3" d="M36.44,9.42a.41.41,0,0,1-.18-.05,4.27,4.27,0,0,1-2.44-2.94c-.53-2.72,2-5.65,2.06-5.77a.37.37,0,1,1,.56.49S34.1,3.92,34.56,6.29a3.53,3.53,0,0,0,2,2.42.38.38,0,0,1,.16.5A.39.39,0,0,1,36.44,9.42Z"/><path class="cls-3" d="M41.86,10.25a.35.35,0,0,1-.28-.13.37.37,0,0,1,0-.53s2.77-2.35,2.71-4.76A3.53,3.53,0,0,0,42.7,2.11a.38.38,0,0,1,.45-.6,4.26,4.26,0,0,1,1.93,3.3c.07,2.78-2.85,5.25-3,5.36A.35.35,0,0,1,41.86,10.25Z"/><path class="cls-3" d="M55.3,41.9a.37.37,0,0,1-.29-.14.38.38,0,0,1,.06-.53,6.93,6.93,0,0,0,2.37-6.6A48,48,0,0,0,56,29.39c-1.05-3.27-2.14-6.64-2.16-9.9a.37.37,0,0,1,.37-.38h0a.38.38,0,0,1,.38.38c0,3.14,1.09,6.46,2.12,9.67a48.33,48.33,0,0,1,1.51,5.32,7.69,7.69,0,0,1-2.65,7.34A.34.34,0,0,1,55.3,41.9Z"/><path class="cls-3" d="M56.55,24.8h0a.37.37,0,0,1-.33-.41c.51-4.12-.28-7.5-2.33-10C50.54,10.28,45,9.78,44.93,9.77A.37.37,0,0,1,45,9c.24,0,5.92.53,9.43,4.85,2.2,2.69,3,6.25,2.51,10.59A.39.39,0,0,1,56.55,24.8Z"/><path class="cls-5" d="M41.33,39.25c-.42,0-.87,0-1.2,0a.37.37,0,0,1-.36-.39.36.36,0,0,1,.39-.36,13.05,13.05,0,0,0,2.1,0,.38.38,0,0,1,.46.25.35.35,0,0,1-.21.46A4.73,4.73,0,0,1,41.33,39.25Z"/><path class="cls-5" d="M29.29,32.44l-.11,0a.38.38,0,0,1-.25-.47,3.74,3.74,0,0,0-1-3.74.38.38,0,1,1,.5-.56,4.46,4.46,0,0,1,1.19,4.52A.38.38,0,0,1,29.29,32.44Z"/><path class="cls-5" d="M51.52,33.54h0a.38.38,0,0,1-.34-.41,7.56,7.56,0,0,1,1.7-4.36.39.39,0,0,1,.53,0,.37.37,0,0,1,0,.53A6.94,6.94,0,0,0,51.9,33.2.38.38,0,0,1,51.52,33.54Z"/><path class="cls-4" d="M29.67,50.27s8.52,10.18,15.09,7.45,12.71-10.1,9.41-11.08S24.51,46.17,29.67,50.27Z"/><path class="cls-1" d="M52.16,63.72s-5-4.46-10.15-1.94-3.61,7.75-8.34,6.78-13.32.5-11.28,5.62-11,9.13-6.06,15.72,18.36,1.52,22.47,2.88,13.81,1.94,14.94-1.94,8.35-4.45,7.22-9.49S58.7,69.34,52.16,63.72Z"/><path class="cls-4" d="M35.77,75.44s5.07,6.08,5.06,11.94c0,3.73-2.76-2.56-3.7-3.83s2,4.21,1,6c-.48.86-3.55-5.48-3.55-5.48s1.3,6,.47,6.53-3-5.14-3-5.14.1,4.65-.88,4.71-.64-4.73-4.59-6.79-22,12.25-22.4.51,4.85-15.8,17.1-13.67C31,71.86,32.55,72.93,35.77,75.44Z"/><path class="cls-4" d="M47,75.44S42,81.52,42,87.38c0,3.73,2.75-2.56,3.69-3.83s-2,4.21-1,6c.49.86,3.55-5.48,3.55-5.48s-1.3,6-.47,6.53,3-5.14,3-5.14-.1,4.65.89,4.71.63-4.73,4.58-6.79S80.41,97,80.84,85.26,73.7,68.05,61.45,70.18C51.78,71.86,50.26,72.93,47,75.44Z"/><path class="cls-1" d="M52.68,85.67s.11-10.3,5.73-10.23,8.3,5.1,3,8.06S52.53,87.68,52.68,85.67Z"/><path class="cls-1" d="M56.92,79.26a4,4,0,0,0,3,2.3c2.12.21,6.94,0,7.36,3s-2.1,7.24-5.19,6.82-6.27-1-8.87.7S53.25,78,56.92,79.26Z"/><circle class="cls-1" cx="59.76" cy="62.94" r="2.52"/><circle class="cls-1" cx="30.57" cy="62.94" r="2.52"/><path class="cls-5" d="M41.1,36.82a6.75,6.75,0,0,1-3.69-1.39.38.38,0,0,1,.47-.59A5.57,5.57,0,0,0,41.65,36a3.34,3.34,0,0,0,2.23-1.68.38.38,0,0,1,.52-.13.38.38,0,0,1,.12.52,4,4,0,0,1-2.75,2A5,5,0,0,1,41.1,36.82Z"/><path class="cls-2" d="M26,47.62s-7,9.65-7.24,15.32S12.28,71,14.06,79.19c.7,3.22,4,7.93.57,9.58-4,2-10.69,1-11.51-.24-5.95-9.34.07-30.87,6.34-35.79C14.2,49,26,47.62,26,47.62Z"/><path class="cls-2" d="M59.21,47.62s7,9.65,7.23,15.32,6.5,8.07,4.71,16.25c-.7,3.22-4,7.93-.56,9.58,4,2,10.69,1,11.51-.24C88,79.19,82,57.66,75.76,52.74,71,49,59.21,47.62,59.21,47.62Z"/></g></g></svg>