<svg xmlns="http://www.w3.org/2000/svg" viewBox="0 0 83.22 92.43"><defs><style>.cls-1{fill:#fff;}.cls-2{fill:#e6b56f;}.cls-3{fill:#3e2d4a;}.cls-4{fill:#df9f85;}.cls-5,.cls-7{fill:#c05c5d;}.cls-6{fill:#fffcf6;}.cls-7{opacity:0.21;}</style></defs><title>wear_mask</title><g id="Layer_2" data-name="Layer 2"><g id="OBJECTS"><circle class="cls-1" cx="41.61" cy="46.77" r="41.61"/><path class="cls-2" d="M13.53,87.12H71.08s2-33.09-5.31-37.93-41.62-3.83-49.22.3S13.53,87.12,13.53,87.12Z"/><path class="cls-3" d="M23.12,42.22a.36.36,0,0,1-.24-.09C22.72,42,19,38.9,21.05,32.64a45.94,45.94,0,0,1,2-5.11,18.56,18.56,0,0,0,2-8,.4.4,0,0,1,.39-.36.37.37,0,0,1,.36.39,19.4,19.4,0,0,1-2.11,8.33,48.17,48.17,0,0,0-2,5c-1.85,5.75,1.45,8.57,1.59,8.68a.38.38,0,0,1,.06.53A.4.4,0,0,1,23.12,42.22Z"/><circle class="cls-3" cx="38.84" cy="4.71" r="4.71"/><path class="cls-3" d="M22.69,40.39s1.38,2.85,7,3.85,10.07-1,14.42.54S54.77,44.3,56,42.47,57,20.39,53.57,17s-21.41-6.23-25.31-2.26S20.22,38.11,22.69,40.39Z"/><circle class="cls-3" cx="39.75" cy="23.83" r="15.51"/><path class="cls-4" d="M46.11,37.38s1,12.08,0,13.42-7.38.33-9.06,0S34.7,37.38,35.71,37.38,45.92,34.68,46.11,37.38Z"/><path class="cls-4" d="M27.09,23.25s.63,18.82,13.36,19.64,12.72-25.72,8.11-28.24S24.73,12.6,27.09,23.25Z"/><path class="cls-5" d="M40.16,27.28s2.43,5.79,1.8,6.18a3.72,3.72,0,0,1-3-.12C38.52,32.92,39.16,26.63,40.16,27.28Z"/><circle class="cls-3" cx="35.15" cy="29.16" r="1.2"/><circle class="cls-3" cx="45.42" cy="28.59" r="1.2"/><path class="cls-3" d="M37.11,13.21s-4.57,2.2-5.43,6.35-.42,14.75-5.26,14.26C26.42,33.82,17.06,12.83,37.11,13.21Z"/><path class="cls-3" d="M39.51,13.3c-.41.29,4.71.28,7.64,3.83s3.62,12.42,4.07,12.58,2.26-11-.95-14.34S41.87,11.61,39.51,13.3Z"/><path class="cls-5" d="M35.89,41.17A11.32,11.32,0,0,0,46,41.35s.4,3.16,0,3.89-8.54,1.25-10.15-2.34C35.83,42.9,35.42,41,35.89,41.17Z"/><path class="cls-4" d="M50.12,30.47s1.22-4.72,3.35-3,.2,6.6-1.9,7S49,32.9,50.12,30.47Z"/><path class="cls-4" d="M30.05,29.71s-.86-4.79-3.11-3.27-.69,6.57,1.37,7.17S31,32.22,30.05,29.71Z"/><path class="cls-3" d="M44.94,24.39s2.28-1.13,3.62.61c1.19,1.53-1.57.25-2.6.42S43.58,25.47,44.94,24.39Z"/><path class="cls-3" d="M36,24.61s-2.29-1.12-3.63.62c-1.17,1.53,1.58.24,2.61.41S37.35,25.68,36,24.61Z"/><path class="cls-6" d="M35.06,34.32H34.9A4.15,4.15,0,0,1,35.05,26h.16a4.14,4.14,0,0,1-.15,8.28Zm0-7.79a3.65,3.65,0,0,0-.13,7.29h.14a3.62,3.62,0,0,0,3.63-3.5,3.64,3.64,0,0,0-3.5-3.78Z"/><path class="cls-6" d="M45.4,33.74h-.16a4.15,4.15,0,0,1,.15-8.29h.16a4.14,4.14,0,0,1-.15,8.28Zm0-7.79a3.65,3.65,0,0,0-.13,7.29h.14A3.64,3.64,0,0,0,45.53,26Z"/><path class="cls-6" d="M31.28,29.45h-.09l-1.52-.6a.26.26,0,0,1-.14-.33.25.25,0,0,1,.33-.14l1.51.6a.25.25,0,0,1-.09.48Z"/><path class="cls-6" d="M49.14,28.79a.25.25,0,0,1-.24-.18.25.25,0,0,1,.17-.31l2.11-.6a.25.25,0,1,1,.14.48l-2.11.6Z"/><path class="cls-3" d="M38.65,12.22s.58,10.2,3.39,11.13,9.73.67,10.06-.44-5.36-10.1-9.45-11.54C35.48,8.84,29.29,20.5,30.11,23.31s7,.35,8.29,0S38.39,14.24,38.65,12.22Z"/><path class="cls-7" d="M31.65,33.56s6.51-3.56,9.32-3,7.76.78,8,1.8-6.29.4-8.29.55S30.9,35.21,31.65,33.56Z"/><path class="cls-5" d="M35.31,31.3a.38.38,0,0,1-.35-.24.38.38,0,0,1,.22-.49,1.66,1.66,0,0,0,.71-.4.36.36,0,0,1,.47-.2.4.4,0,0,1,.21.51c-.06.16-.28.47-1.13.79A.31.31,0,0,1,35.31,31.3Z"/><path class="cls-5" d="M45.15,31a2.63,2.63,0,0,1-1.1-.35A.38.38,0,0,1,44.4,30a1.68,1.68,0,0,0,.77.27.34.34,0,0,1,.46.21.4.4,0,0,1-.23.5A.67.67,0,0,1,45.15,31Z"/><path class="cls-6" d="M39,30.36a.25.25,0,0,1,0-.5l2.56-.2a.24.24,0,0,1,.27.23.25.25,0,0,1-.23.26L39,30.36Z"/><path class="cls-3" d="M35.9,9.42a.34.34,0,0,1-.17-.05,4.22,4.22,0,0,1-2.44-2.94c-.53-2.72,2-5.65,2.05-5.77a.38.38,0,1,1,.57.49S33.56,3.92,34,6.29a3.49,3.49,0,0,0,2,2.42.38.38,0,0,1-.17.71Z"/><path class="cls-3" d="M41.33,10.25a.37.37,0,0,1-.29-.13.38.38,0,0,1,.05-.53s2.77-2.35,2.7-4.76a3.51,3.51,0,0,0-1.62-2.72.38.38,0,0,1-.08-.53.39.39,0,0,1,.53-.07,4.22,4.22,0,0,1,1.92,3.3c.08,2.78-2.85,5.25-3,5.36A.37.37,0,0,1,41.33,10.25Z"/><path class="cls-3" d="M54.77,41.9a.41.41,0,0,1-.3-.14.39.39,0,0,1,.07-.53,7,7,0,0,0,2.37-6.6,46,46,0,0,0-1.49-5.24c-1.05-3.26-2.14-6.64-2.16-9.9a.38.38,0,0,1,.38-.38h0a.38.38,0,0,1,.37.38c0,3.14,1.09,6.46,2.13,9.67a48.33,48.33,0,0,1,1.51,5.32A7.71,7.71,0,0,1,55,41.82.34.34,0,0,1,54.77,41.9Z"/><path class="cls-3" d="M56,24.8H56a.36.36,0,0,1-.32-.41c.5-4.13-.28-7.5-2.34-10C50,10.28,44.45,9.78,44.4,9.77a.38.38,0,0,1-.35-.4A.37.37,0,0,1,44.46,9c.24,0,5.91.53,9.43,4.85,2.19,2.69,3,6.25,2.5,10.59A.37.37,0,0,1,56,24.8Z"/><path class="cls-5" d="M40.79,39.37l-1.2,0a.5.5,0,0,1-.48-.52.52.52,0,0,1,.52-.48,15.58,15.58,0,0,0,2.06,0,.5.5,0,0,1,.32,1A5,5,0,0,1,40.79,39.37Z"/><path class="cls-5" d="M28.75,32.44l-.11,0a.38.38,0,0,1-.25-.47,3.73,3.73,0,0,0-1-3.74.37.37,0,0,1,0-.53.38.38,0,0,1,.53,0,4.47,4.47,0,0,1,1.18,4.52A.38.38,0,0,1,28.75,32.44Z"/><path class="cls-5" d="M51,33.54h0a.37.37,0,0,1-.34-.41,7.49,7.49,0,0,1,1.7-4.36.39.39,0,0,1,.53,0,.38.38,0,0,1,0,.53,7,7,0,0,0-1.5,3.91A.37.37,0,0,1,51,33.54Z"/><path class="cls-6" d="M30.16,30s3.26,2.72,3.52,3.13.15,5.71-.36,5.65-3.62-5.11-4-5.1-.19.55-.19.55,2.66,4.4,4.26,5.64,11.58,1.3,13.62.15,3.75-5.45,3.6-5.54-.54-.44-.61-.3-2.81,5-3.16,4.89,0-5.61,0-6.13,4-4.43,4-4.43l.29-.49-.41-.11s-3.95,3.95-4.95,3.93-11.38.72-11.86.55-3.69-3.66-4.09-3.52S30.05,29.71,30.16,30Z"/><path class="cls-4" d="M29.14,50.27s8.51,10.18,15.08,7.45,12.72-10.1,9.42-11.08S24,46.17,29.14,50.27Z"/><path class="cls-4" d="M66.53,44.24s-1.16-9-1.54-9.57S61.67,38.51,62.46,41s-10.15,2.57-9.29,6.23.33,8.6,4.86,8.85,9.72-1,10.78-2.66S66.53,44.24,66.53,44.24Z"/><path class="cls-2" d="M72.46,52.31S84.22,67.19,81.93,77,68.45,88.34,66.16,87.07,64.72,43.83,72.46,52.31Z"/><path class="cls-2" d="M14.54,50.47S-.81,67,.19,81.66C1,93.81,19.65,92,22,90.81S22.28,42.79,14.54,50.47Z"/><path class="cls-4" d="M67.4,46.37S82.81,76.84,78.58,82.06s-11.76,5.81-14.76,1.48C62.07,81,64.52,58.71,61.93,56S66.58,44.94,67.4,46.37Z"/><path class="cls-4" d="M43.71,77.78s10.47,4,12.14,7.28-4.54-.73-6-1.33,3.81,3.59,4,4.56S48,85.43,48,85.43s4.19,4.43,3.78,5.35-5.2-2.87-5.2-2.87S49,91.84,48.2,92.4s-6.22-6-10.68-5.7-21.33,10.06-27.75.22-1-14.51,11.43-14.37S40.25,76.33,43.71,77.78Z"/></g></g></svg>